# xmcd
#
# Track frame offsets:
#	150
#	14264
#	25222
#	42595
#	55124
#	73223
#	92530
#	100013
#	111415
#	141697
#
# Disc length: 2071 seconds
# Revision: 0
# Processed by: cddbd v1.5.2PL0 Copyright (c) Steve Scherf et al.
# Submitted via: dBpowerAMP V12.0
#
DISCID=8d08150a
DTITLE=Sturgill Simpson - Metamodern Sounds in Country Music
DYEAR=2014
DGENRE=Country
TTITLE0=Turtles All the Way Down
TTITLE1=Life of Sin
TTITLE2=Living the Dream
TTITLE3=Voices
TTITLE4=Long White L‌ine
TTITLE5=The Promise
TTITLE6=A Little Light
TTITLE7=Just Let Go
TTITLE8=It Ain't All Flowers
TTITLE9=Untitled
EXTD=
EXTT0=
EXTT1=
EXTT2=
EXTT3=
EXTT4=
EXTT5=
EXTT6=
EXTT7=
EXTT8=
EXTT9=
PLAYORDER=
